<svg width="129" height="25" viewBox="0 0 129 25" fill="none" xmlns="http://www.w3.org/2000/svg">
<path d="M0.362823 4C0.362823 1.79086 2.15368 0 4.36282 0H124.363C126.572 0 128.363 1.79086 128.363 4V21C128.363 23.2091 126.572 25 124.363 25H4.36282C2.15368 25 0.362823 23.2091 0.362823 21V4Z" fill="#B486FF"/>
<path d="M9.22362 17V8.27273H14.8145V9.59801H10.8046V11.9673H14.431V13.2926H10.8046V17H9.22362ZM21.7563 8.27273H23.3373V13.9744C23.3373 14.5994 23.1895 15.1491 22.8941 15.6236C22.6015 16.098 22.1895 16.4687 21.6583 16.7358C21.127 17 20.5063 17.1321 19.7961 17.1321C19.083 17.1321 18.4608 17 17.9296 16.7358C17.3983 16.4687 16.9864 16.098 16.6938 15.6236C16.4012 15.1491 16.2549 14.5994 16.2549 13.9744V8.27273H17.8358V13.8423C17.8358 14.206 17.9154 14.5298 18.0745 14.8139C18.2364 15.098 18.4637 15.321 18.7563 15.483C19.0489 15.642 19.3955 15.7216 19.7961 15.7216C20.1966 15.7216 20.5432 15.642 20.8358 15.483C21.1313 15.321 21.3586 15.098 21.5177 14.8139C21.6767 14.5298 21.7563 14.206 21.7563 13.8423V8.27273ZM24.6721 9.59801V8.27273H31.6352V9.59801H28.9378V17H27.3696V9.59801H24.6721ZM38.4789 8.27273H40.0599V13.9744C40.0599 14.5994 39.9122 15.1491 39.6167 15.6236C39.3241 16.098 38.9122 16.4687 38.3809 16.7358C37.8497 17 37.2289 17.1321 36.5187 17.1321C35.8057 17.1321 35.1835 17 34.6522 16.7358C34.121 16.4687 33.7091 16.098 33.4164 15.6236C33.1238 15.1491 32.9775 14.5994 32.9775 13.9744V8.27273H34.5585V13.8423C34.5585 14.206 34.638 14.5298 34.7971 14.8139C34.9591 15.098 35.1863 15.321 35.4789 15.483C35.7716 15.642 36.1182 15.7216 36.5187 15.7216C36.9193 15.7216 37.2659 15.642 37.5585 15.483C37.8539 15.321 38.0812 15.098 38.2403 14.8139C38.3994 14.5298 38.4789 14.206 38.4789 13.8423V8.27273ZM41.7783 17V8.27273H45.051C45.7215 8.27273 46.284 8.3892 46.7385 8.62216C47.1959 8.85511 47.5411 9.18182 47.774 9.60227C48.0098 10.0199 48.1277 10.5071 48.1277 11.0639C48.1277 11.6236 48.0084 12.1094 47.7698 12.5213C47.534 12.9304 47.186 13.2472 46.7257 13.4716C46.2655 13.6932 45.7002 13.804 45.0297 13.804H42.6988V12.4915H44.8167C45.2087 12.4915 45.5297 12.4375 45.7797 12.3295C46.0297 12.2187 46.2144 12.0582 46.3337 11.848C46.4559 11.6349 46.5169 11.3736 46.5169 11.0639C46.5169 10.7543 46.4559 10.4901 46.3337 10.2713C46.2115 10.0497 46.0255 9.8821 45.7755 9.76847C45.5255 9.65199 45.203 9.59375 44.8081 9.59375H43.3593V17H41.7783ZM46.2868 13.0455L48.4473 17H46.6831L44.561 13.0455H46.2868ZM49.583 17V8.27273H55.2591V9.59801H51.164V11.9673H54.9651V13.2926H51.164V15.6747H55.2932V17H49.583ZM59.8486 17V8.27273H63.1213C63.7918 8.27273 64.3543 8.3892 64.8088 8.62216C65.2662 8.85511 65.6114 9.18182 65.8444 9.60227C66.0802 10.0199 66.1981 10.5071 66.1981 11.0639C66.1981 11.6236 66.0787 12.1094 65.8401 12.5213C65.6043 12.9304 65.2563 13.2472 64.7961 13.4716C64.3358 13.6932 63.7705 13.804 63.1 13.804H60.7691V12.4915H62.887C63.279 12.4915 63.6 12.4375 63.85 12.3295C64.1 12.2187 64.2847 12.0582 64.404 11.848C64.5262 11.6349 64.5873 11.3736 64.5873 11.0639C64.5873 10.7543 64.5262 10.4901 64.404 10.2713C64.2819 10.0497 64.0958 9.8821 63.8458 9.76847C63.5958 9.65199 63.2733 9.59375 62.8784 9.59375H61.4296V17H59.8486ZM64.3571 13.0455L66.5177 17H64.7534L62.6313 13.0455H64.3571ZM67.6533 17V8.27273H73.3294V9.59801H69.2343V11.9673H73.0354V13.2926H69.2343V15.6747H73.3635V17H67.6533ZM74.9424 17V8.27273H76.5233V15.6747H80.3671V17H74.9424ZM81.7392 17V8.27273H87.4154V9.59801H83.3202V11.9673H87.1213V13.2926H83.3202V15.6747H87.4495V17H81.7392ZM90.149 17H88.4615L91.534 8.27273H93.4857L96.5624 17H94.8749L92.5439 10.0625H92.4757L90.149 17ZM90.2044 13.5781H94.8067V14.848H90.2044V13.5781ZM102.314 10.6719C102.274 10.2997 102.107 10.0099 101.811 9.80256C101.519 9.59517 101.138 9.49148 100.669 9.49148C100.34 9.49148 100.057 9.54119 99.8213 9.64062C99.5855 9.74006 99.4051 9.875 99.2801 10.0455C99.1551 10.2159 99.0912 10.4105 99.0883 10.6293C99.0883 10.8111 99.1295 10.9687 99.2119 11.1023C99.2971 11.2358 99.4122 11.3494 99.5571 11.4432C99.702 11.5341 99.8625 11.6108 100.039 11.6733C100.215 11.7358 100.392 11.7884 100.571 11.831L101.389 12.0355C101.719 12.1122 102.036 12.2159 102.34 12.3466C102.647 12.4773 102.921 12.642 103.162 12.8409C103.407 13.0398 103.6 13.2798 103.742 13.5611C103.884 13.8423 103.955 14.1719 103.955 14.5497C103.955 15.0611 103.824 15.5114 103.563 15.9006C103.301 16.2869 102.924 16.5895 102.429 16.8082C101.938 17.0241 101.343 17.1321 100.644 17.1321C99.9647 17.1321 99.3753 17.027 98.8753 16.8168C98.3781 16.6065 97.9889 16.2997 97.7076 15.8963C97.4292 15.4929 97.2787 15.0014 97.2559 14.4219H98.8113C98.8341 14.7259 98.9278 14.9787 99.0926 15.1804C99.2574 15.3821 99.4718 15.5327 99.736 15.6321C100.003 15.7315 100.301 15.7812 100.631 15.7812C100.975 15.7812 101.276 15.7301 101.534 15.6278C101.796 15.5227 102 15.3778 102.148 15.1932C102.296 15.0057 102.371 14.7869 102.374 14.5369C102.371 14.3097 102.304 14.1222 102.174 13.9744C102.043 13.8239 101.86 13.6989 101.624 13.5994C101.391 13.4972 101.118 13.4062 100.806 13.3267L99.8128 13.071C99.094 12.8864 98.5258 12.6065 98.1082 12.2315C97.6934 11.8537 97.486 11.3523 97.486 10.7273C97.486 10.2131 97.6253 9.76278 97.9037 9.37642C98.1849 8.99006 98.567 8.69034 99.05 8.47727C99.5329 8.26136 100.08 8.15341 100.691 8.15341C101.31 8.15341 101.853 8.26136 102.318 8.47727C102.787 8.69034 103.155 8.98722 103.422 9.3679C103.689 9.74574 103.827 10.1804 103.835 10.6719H102.314ZM105.364 17V8.27273H111.04V9.59801H106.945V11.9673H110.746V13.2926H106.945V15.6747H111.074V17H105.364ZM117.396 10.6719C117.356 10.2997 117.189 10.0099 116.893 9.80256C116.601 9.59517 116.22 9.49148 115.751 9.49148C115.422 9.49148 115.139 9.54119 114.903 9.64062C114.668 9.74006 114.487 9.875 114.362 10.0455C114.237 10.2159 114.173 10.4105 114.17 10.6293C114.17 10.8111 114.212 10.9687 114.294 11.1023C114.379 11.2358 114.494 11.3494 114.639 11.4432C114.784 11.5341 114.944 11.6108 115.121 11.6733C115.297 11.7358 115.474 11.7884 115.653 11.831L116.471 12.0355C116.801 12.1122 117.118 12.2159 117.422 12.3466C117.729 12.4773 118.003 12.642 118.244 12.8409C118.489 13.0398 118.682 13.2798 118.824 13.5611C118.966 13.8423 119.037 14.1719 119.037 14.5497C119.037 15.0611 118.906 15.5114 118.645 15.9006C118.383 16.2869 118.006 16.5895 117.511 16.8082C117.02 17.0241 116.425 17.1321 115.726 17.1321C115.047 17.1321 114.457 17.027 113.957 16.8168C113.46 16.6065 113.071 16.2997 112.79 15.8963C112.511 15.4929 112.361 15.0014 112.338 14.4219H113.893C113.916 14.7259 114.01 14.9787 114.175 15.1804C114.339 15.3821 114.554 15.5327 114.818 15.6321C115.085 15.7315 115.383 15.7812 115.713 15.7812C116.057 15.7812 116.358 15.7301 116.616 15.6278C116.878 15.5227 117.082 15.3778 117.23 15.1932C117.378 15.0057 117.453 14.7869 117.456 14.5369C117.453 14.3097 117.386 14.1222 117.256 13.9744C117.125 13.8239 116.942 13.6989 116.706 13.5994C116.473 13.4972 116.2 13.4062 115.888 13.3267L114.895 13.071C114.176 12.8864 113.608 12.6065 113.19 12.2315C112.775 11.8537 112.568 11.3523 112.568 10.7273C112.568 10.2131 112.707 9.76278 112.986 9.37642C113.267 8.99006 113.649 8.69034 114.132 8.47727C114.615 8.26136 115.162 8.15341 115.773 8.15341C116.392 8.15341 116.935 8.26136 117.4 8.47727C117.869 8.69034 118.237 8.98722 118.504 9.3679C118.771 9.74574 118.909 10.1804 118.918 10.6719H117.396Z" fill="white"/>
</svg>
