<svg fill="none" height="50" viewBox="0 0 76 50" width="76" xmlns="http://www.w3.org/2000/svg" xmlns:xlink="http://www.w3.org/1999/xlink"><clipPath id="a"><path d="m0 0h75.4717v50h-75.4717z"/></clipPath><g clip-path="url(#a)"><g stroke="#3161e4" stroke-miterlimit="10" stroke-width="3"><path d="m37.2366 3.51331v44.49109c0 .367.2997.6652.6686.6652h14.9599c.1995 0 .3889-.0887.516-.2417l7.164-8.6474c.1271-.153.3165-.2417.516-.2417h10.8792"/><path d="m37.2365 3.5133v44.4911c0 .367-.2997.6652-.6686.6652h-14.9599c-.1995 0-.3889-.0887-.516-.2417l-7.164-8.6474c-.1271-.153-.3165-.2417-.516-.2417h-10.87922"/><path d="m36.3618 19.8792 11.4699-4.7972c.2485-.1042.4089-.3459.4089-.613v-6.05991"/><path d="m62.473 15.5876-11.0888 9.2184c-.1203.0998-.2719.1552-.429.1552h-7.9853c-.3689 0-.6686.2982-.6686.6652v23.0443"/><path d="m42.3013 37.9845h8.85c.214 0 .4157-.102.5416-.275l4.9398-6.7694c.0491-.0665.1092-.1241.1794-.1685l9.6937-6.1995"/><path d="m24.142 10.1164v11.4313c0 .2716.166.5166.4201.6175l12.6744 5.0421"/><path d="m13.8132 18.0299 8.9838 12.602c.1259.1763.3287.2805.5449.2805h8.0912c.3688 0 .6686.2982.6686.6652v17.092"/><path d="m8.66833 28.571 9.12417 5.4767c.088.0532.1627.1252.2184.2117l4.7894 7.4546c.1226.1907.3355.3071.5639.3071h8.7386"/></g><path d="m24.1421 12.521c1.3349 0 2.417-1.0766 2.417-2.4046 0-1.32807-1.0821-2.40467-2.417-2.40467s-2.417 1.0766-2.417 2.40467c0 1.328 1.0821 2.4046 2.417 2.4046z" fill="#fff"/><path d="m24.142 8.82038c.7187 0 1.3026.58093 1.3026 1.29602 0 .7151-.5839 1.296-1.3026 1.296-.7188 0-1.3027-.5809-1.3027-1.296 0-.71509.5839-1.29602 1.3027-1.29602zm0-2.21729c-1.9501 0-3.5313 1.57317-3.5313 3.51331 0 1.9401 1.5812 3.5133 3.5313 3.5133s3.5313-1.5732 3.5313-3.5133c0-1.94014-1.5812-3.51331-3.5313-3.51331z" fill="#3161e4"/><path d="m37.2365 5.91796c-1.3327 0-2.417-1.07872-2.417-2.40466s1.0843-2.40466 2.417-2.40466c1.3328 0 2.417 1.07872 2.417 2.40466s-1.0842 2.40466-2.417 2.40466z" fill="#fff"/><path d="m37.2366 2.2173c.7187 0 1.3027.58093 1.3027 1.296 0 .71508-.584 1.29601-1.3027 1.29601-.7188 0-1.3027-.58093-1.3027-1.29601 0-.71507.5839-1.296 1.3027-1.296zm0-2.2173001c-1.9501.00000005-3.5313 1.5731701-3.5313 3.5133001 0 1.94014 1.5812 3.51331 3.5313 3.51331s3.5313-1.57317 3.5313-3.51331c0-1.94013-1.5801-3.51330016-3.5313-3.5133001z" fill="#3161e4"/><path d="m48.2407 10.8126c-1.3327 0-2.417-1.07868-2.417-2.40462s1.0843-2.40465 2.417-2.40465c1.3328 0 2.417 1.07871 2.417 2.40465s-1.0842 2.40462-2.417 2.40462z" fill="#fff"/><path d="m48.2406 7.11198c.7188 0 1.3027.58093 1.3027 1.29601s-.5839 1.29601-1.3027 1.29601c-.7187 0-1.3026-.58093-1.3026-1.29601s.5839-1.29601 1.3026-1.29601zm0-2.2173c-1.9501 0-3.5313 1.57317-3.5313 3.51331 0 1.94011 1.5812 3.51331 3.5313 3.51331s3.5313-1.5732 3.5313-3.51331c0-1.94014-1.5812-3.51331-3.5313-3.51331z" fill="#3161e4"/><path d="m60.7468 19.1885c-1.3328 0-2.417-1.0788-2.417-2.4047s1.0842-2.4046 2.417-2.4046c1.3327 0 2.417 1.0787 2.417 2.4046s-1.0843 2.4047-2.417 2.4047z" fill="#fff"/><path d="m60.7468 15.4878c.7188 0 1.3027.5809 1.3027 1.296s-.5839 1.296-1.3027 1.296c-.7187 0-1.3026-.5809-1.3026-1.296s.5839-1.296 1.3026-1.296zm0-2.2173c-1.95 0-3.5313 1.5732-3.5313 3.5133s1.5813 3.5133 3.5313 3.5133c1.9501 0 3.5314-1.5732 3.5314-3.5133s-1.5813-3.5133-3.5314-3.5133z" fill="#3161e4"/><path d="m66.3086 26.9767c1.3349 0 2.417-1.0766 2.417-2.4047 0-1.328-1.0821-2.4046-2.417-2.4046s-2.417 1.0766-2.417 2.4046c0 1.3281 1.0821 2.4047 2.417 2.4047z" fill="#fff"/><path d="m66.3084 23.276c.7188 0 1.3027.581 1.3027 1.2961 0 .715-.5839 1.296-1.3027 1.296-.7187 0-1.3026-.581-1.3026-1.296 0-.7151.5839-1.2961 1.3026-1.2961zm0-2.2173c-1.9501 0-3.5313 1.5732-3.5313 3.5134 0 1.9401 1.5812 3.5133 3.5313 3.5133s3.5314-1.5732 3.5314-3.5133c0-1.9402-1.5813-3.5134-3.5314-3.5134z" fill="#3161e4"/><path d="m71.9415 41.7894c-1.3328 0-2.417-1.0788-2.417-2.4047s1.0842-2.4047 2.417-2.4047c1.3327 0 2.417 1.0788 2.417 2.4047s-1.0843 2.4047-2.417 2.4047z" fill="#fff"/><path d="m71.9414 38.0887c.7188 0 1.3027.5809 1.3027 1.296s-.5839 1.296-1.3027 1.296c-.7187 0-1.3026-.5809-1.3026-1.296s.5839-1.296 1.3026-1.296zm0-2.2173c-1.9501 0-3.5313 1.5732-3.5313 3.5133s1.5812 3.5133 3.5313 3.5133 3.5313-1.5732 3.5313-3.5133-1.5812-3.5133-3.5313-3.5133z" fill="#3161e4"/><path d="m3.53119 41.7894c1.33487 0 2.41699-1.0766 2.41699-2.4047s-1.08212-2.4047-2.41699-2.4047-2.41699 1.0766-2.41699 2.4047 1.08212 2.4047 2.41699 2.4047z" fill="#fff"/><path d="m3.53127 38.0887c.71874 0 1.30266.5809 1.30266 1.296s-.58392 1.296-1.30266 1.296c-.71875 0-1.30266-.5809-1.30266-1.296s.58391-1.296 1.30266-1.296zm0-2.2173c-1.95009 0-3.53133106 1.5732-3.5313311 3.5133-.00000003 1.9401 1.5812411 3.5133 3.5313311 3.5133 1.95008 0 3.53133-1.5732 3.53133-3.5133s-1.58125-3.5133-3.53133-3.5133z" fill="#3161e4"/><path d="m8.6684 30.9756c-1.33275 0-2.417-1.0787-2.417-2.4047 0-1.3259 1.08425-2.4046 2.417-2.4046 1.3327 0 2.417 1.0787 2.417 2.4046 0 1.326-1.0843 2.4047-2.417 2.4047z" fill="#fff"/><path d="m8.66835 27.2749c.71875 0 1.30266.581 1.30266 1.2961 0 .715-.58391 1.296-1.30266 1.296-.71874 0-1.30266-.581-1.30266-1.296 0-.7151.58392-1.2961 1.30266-1.2961zm0-2.2173c-1.95008 0-3.53133 1.5732-3.53133 3.5134 0 1.9401 1.58125 3.5133 3.53133 3.5133 1.95005 0 3.53135-1.5732 3.53135-3.5133 0-1.9402-1.5813-3.5134-3.53135-3.5134z" fill="#3161e4"/><path d="m13.8132 20.4346c1.3348 0 2.417-1.0766 2.417-2.4047 0-1.328-1.0822-2.4046-2.417-2.4046-1.3349 0-2.417 1.0766-2.417 2.4046 0 1.3281 1.0821 2.4047 2.417 2.4047z" fill="#fff"/><path d="m13.8133 16.7339c.7187 0 1.3026.581 1.3026 1.296 0 .7151-.5839 1.296-1.3026 1.296-.7188 0-1.3027-.5809-1.3027-1.296 0-.715.5839-1.296 1.3027-1.296zm0-2.2173c-1.9501 0-3.5314 1.5732-3.5314 3.5133 0 1.9402 1.5813 3.5133 3.5314 3.5133 1.95 0 3.5313-1.5731 3.5313-3.5133 0-1.9401-1.5813-3.5133-3.5313-3.5133z" fill="#3161e4"/></g></svg>