<svg width="83" height="26" viewBox="0 0 83 26" fill="none" xmlns="http://www.w3.org/2000/svg">
<path d="M0 8.63721C0 4.21893 3.58172 0.637207 8 0.637207H75C79.4183 0.637207 83 4.21893 83 8.63721V17.6372C83 22.0555 79.4183 25.6372 75 25.6372H8C3.58172 25.6372 0 22.0555 0 17.6372V8.63721Z" fill="#FBA3B8"/>
<path d="M14.3622 8.90993H15.9432V14.6116C15.9432 15.2366 15.7955 15.7864 15.5 16.2608C15.2074 16.7352 14.7955 17.106 14.2642 17.373C13.733 17.6372 13.1122 17.7693 12.402 17.7693C11.6889 17.7693 11.0668 17.6372 10.5355 17.373C10.0043 17.106 9.59233 16.7352 9.29972 16.2608C9.0071 15.7864 8.8608 15.2366 8.8608 14.6116V8.90993H10.4418V14.4795C10.4418 14.8432 10.5213 15.167 10.6804 15.4511C10.8423 15.7352 11.0696 15.9582 11.3622 16.1202C11.6548 16.2793 12.0014 16.3588 12.402 16.3588C12.8026 16.3588 13.1491 16.2793 13.4418 16.1202C13.7372 15.9582 13.9645 15.7352 14.1236 15.4511C14.2827 15.167 14.3622 14.8432 14.3622 14.4795V8.90993ZM17.6616 17.6372V8.90993H20.9343C21.6048 8.90993 22.1673 9.03493 22.6218 9.28493C23.0792 9.53493 23.4244 9.87868 23.6573 10.3162C23.8931 10.7508 24.011 11.2452 24.011 11.7991C24.011 12.3588 23.8931 12.856 23.6573 13.2906C23.4215 13.7253 23.0735 14.0676 22.6133 14.3176C22.1531 14.5648 21.5863 14.6883 20.913 14.6883H18.744V13.3886H20.6999C21.092 13.3886 21.413 13.3204 21.663 13.1841C21.913 13.0477 22.0977 12.8602 22.217 12.6216C22.3391 12.3829 22.4002 12.1088 22.4002 11.7991C22.4002 11.4895 22.3391 11.2168 22.217 10.981C22.0977 10.7452 21.9116 10.5619 21.6587 10.4312C21.4087 10.2977 21.0863 10.231 20.6914 10.231H19.2425V17.6372H17.6616ZM32.8544 11.8545H31.2607C31.2152 11.5932 31.1314 11.3616 31.0092 11.1599C30.8871 10.9554 30.7351 10.7821 30.5533 10.64C30.3714 10.498 30.1641 10.3915 29.9311 10.3204C29.701 10.2466 29.4524 10.2097 29.1854 10.2097C28.7109 10.2097 28.2905 10.329 27.924 10.5676C27.5575 10.8034 27.2706 11.15 27.0632 11.6074C26.8558 12.0619 26.7521 12.6173 26.7521 13.2736C26.7521 13.9412 26.8558 14.5037 27.0632 14.9611C27.2734 15.4156 27.5604 15.7594 27.924 15.9923C28.2905 16.2224 28.7095 16.3375 29.1811 16.3375C29.4425 16.3375 29.6868 16.3034 29.9141 16.2352C30.1442 16.1642 30.3501 16.0605 30.532 15.9241C30.7166 15.7878 30.8714 15.6202 30.9964 15.4213C31.1243 15.2224 31.2124 14.9952 31.2607 14.7395L32.8544 14.748C32.7947 15.1628 32.6655 15.552 32.4666 15.9156C32.2706 16.2793 32.0135 16.6003 31.6953 16.8787C31.3771 17.1543 31.005 17.3702 30.5788 17.5264C30.1527 17.6798 29.6797 17.7565 29.1598 17.7565C28.3928 17.7565 27.7081 17.579 27.1058 17.2239C26.5036 16.8687 26.0291 16.356 25.6825 15.6855C25.3359 15.015 25.1626 14.2111 25.1626 13.2736C25.1626 12.3332 25.3374 11.5293 25.6868 10.8616C26.0362 10.1912 26.5121 9.6784 27.1143 9.32329C27.7166 8.96817 28.3984 8.79062 29.1598 8.79062C29.6456 8.79062 30.0973 8.8588 30.5149 8.99516C30.9325 9.13153 31.3047 9.33181 31.6314 9.59601C31.9581 9.85738 32.2266 10.1784 32.4368 10.5591C32.6499 10.9369 32.7891 11.3687 32.8544 11.8545ZM42.1005 13.2736C42.1005 14.2139 41.9244 15.0193 41.5721 15.6898C41.2227 16.3574 40.7454 16.8687 40.1403 17.2239C39.538 17.579 38.8548 17.7565 38.0906 17.7565C37.3263 17.7565 36.6417 17.579 36.0366 17.2239C35.4343 16.8659 34.957 16.3531 34.6048 15.6855C34.2553 15.015 34.0806 14.2111 34.0806 13.2736C34.0806 12.3332 34.2553 11.5293 34.6048 10.8616C34.957 10.1912 35.4343 9.6784 36.0366 9.32329C36.6417 8.96817 37.3263 8.79062 38.0906 8.79062C38.8548 8.79062 39.538 8.96817 40.1403 9.32329C40.7454 9.6784 41.2227 10.1912 41.5721 10.8616C41.9244 11.5293 42.1005 12.3332 42.1005 13.2736ZM40.511 13.2736C40.511 12.6116 40.4073 12.0534 40.1999 11.5989C39.9954 11.1415 39.7113 10.7963 39.3477 10.5633C38.984 10.3275 38.565 10.2097 38.0906 10.2097C37.6161 10.2097 37.1971 10.3275 36.8335 10.5633C36.4698 10.7963 36.1843 11.1415 35.9769 11.5989C35.7724 12.0534 35.6701 12.6116 35.6701 13.2736C35.6701 13.9355 35.7724 14.4952 35.9769 14.9525C36.1843 15.4071 36.4698 15.7523 36.8335 15.9881C37.1971 16.221 37.6161 16.3375 38.0906 16.3375C38.565 16.3375 38.984 16.221 39.3477 15.9881C39.7113 15.7523 39.9954 15.4071 40.1999 14.9525C40.4073 14.4952 40.511 13.9355 40.511 13.2736ZM43.5952 8.90993H45.5298L48.1207 15.2338H48.223L50.8139 8.90993H52.7486V17.6372H51.2315V11.6415H51.1506L48.7386 17.6116H47.6051L45.1932 11.6287H45.1122V17.6372H43.5952V8.90993ZM56.0511 8.90993V17.6372H54.4702V8.90993H56.0511ZM64.935 8.90993V17.6372H63.5288L59.4165 11.6926H59.3441V17.6372H57.7631V8.90993H59.1779L63.2859 14.8588H63.3626V8.90993H64.935ZM72.5043 11.6969C72.4332 11.4668 72.3352 11.2608 72.2102 11.079C72.0881 10.8943 71.9403 10.7366 71.767 10.606C71.5966 10.4753 71.4006 10.3773 71.179 10.3119C70.9574 10.2437 70.7159 10.2097 70.4545 10.2097C69.9858 10.2097 69.5682 10.3275 69.2017 10.5633C68.8352 10.7991 68.5469 11.1457 68.3366 11.6031C68.1293 12.0577 68.0256 12.6116 68.0256 13.265C68.0256 13.9241 68.1293 14.4824 68.3366 14.9398C68.544 15.3972 68.8324 15.7452 69.2017 15.9838C69.571 16.2196 70 16.3375 70.4886 16.3375C70.9318 16.3375 71.3153 16.2523 71.6392 16.0818C71.9659 15.9114 72.2173 15.6699 72.3935 15.3574C72.5696 15.042 72.6577 14.6727 72.6577 14.2494L73.0156 14.3048H70.6463V13.069H74.1875V14.1173C74.1875 14.8645 74.0284 15.5108 73.7102 16.0562C73.392 16.6017 72.9545 17.0222 72.3977 17.3176C71.8409 17.6102 71.2017 17.7565 70.4801 17.7565C69.6761 17.7565 68.9702 17.5761 68.3622 17.2153C67.7571 16.8517 67.2841 16.3361 66.9432 15.6685C66.6051 14.998 66.4361 14.2025 66.4361 13.2821C66.4361 12.5775 66.5355 11.9483 66.7344 11.3943C66.9361 10.8403 67.2173 10.3702 67.5781 9.9838C67.9389 9.59459 68.3622 9.29914 68.848 9.09743C69.3338 8.89289 69.8622 8.79062 70.4332 8.79062C70.9162 8.79062 71.3665 8.86164 71.7841 9.00368C72.2017 9.14289 72.5724 9.34175 72.8963 9.60028C73.223 9.8588 73.4915 10.1656 73.7017 10.5207C73.9119 10.8758 74.0497 11.2679 74.1151 11.6969H72.5043Z" fill="white"/>
</svg>
